grf
version=1
nRows=18
nColumns=28
inDegrees=no
endheader
time	ground_force_1_vx	ground_force_1_vy	ground_force_1_vz	ground_force_1_px	ground_force_1_py	ground_force_1_pz	ground_moment_1_mx	ground_moment_1_my	ground_moment_1_mz	ground_force_2_vx	ground_force_2_vy	ground_force_2_vz	ground_force_2_px	ground_force_2_py	ground_force_2_pz	ground_moment_2_mx	ground_moment_2_my	ground_moment_2_mz	ground_force_3_vx	ground_force_3_vy	ground_force_3_vz	ground_force_3_px	ground_force_3_py	ground_force_3_pz	ground_moment_3_mx	ground_moment_3_my	ground_moment_3_mz
      0.61000000	      0.61023728	     -0.27953083	      1.55006616	    527.52421226	  -1627.76840296	      2.59046453	     -0.04246140	     -0.15354098	    -84.13218986	    -13.16131721	   -238.04823132	  -1625.35379185	    418.37541129	  -1718.96663069	      0.17062662	      0.09299763	      1.20273263	  -1441.20254060	      1.64708978	     -0.64462627	      4.50249402	    453.08170680	   -302.80324934	      0.42044685	     -0.09923174	      0.72894908	    354.95457307
      0.62000000	      0.53775391	      0.04041493	      1.64560160	    473.54997624	  -1610.21702164	      2.58567404	     -0.01350869	     -0.04884758	    -26.76584605	    -31.79874652	   -249.08788503	  -1389.96118972	    420.76164472	  -1722.83901388	      0.16754896	      0.04909614	      0.63495730	   -760.85245551	      1.36823045	     -0.59622950	      3.85048500	    504.36672603	   -264.55915892	      0.35624457	     -0.10292975	      0.75611441	    368.18246381
      0.63000000	      0.48208005	      0.01374614	      1.53639696	    472.33753018	  -1496.82526671	      2.37934637	      0.01219370	      0.04409256	     24.16034988	    -44.02051075	   -248.24309874	  -1117.46605657	    422.86858992	  -1726.28556111	      0.16480866	     -0.01307110	     -0.16904769	    202.56534959	      1.63220396	     -0.74322421	      3.98145037	    501.83407392	   -272.68921385	      0.37223275	     -0.11248714	      0.82632229	    402.36949626
      0.64000000	      0.48562840	     -0.04874812	      1.18469144	    381.95626218	  -1564.75920229	      2.54894089	     -0.00984091	     -0.03558484	    -19.49857874	    -47.96658943	   -226.28578314	   -832.34866395	    423.99598629	  -1729.29815723	      0.16236729	     -0.07722148	     -0.99870063	   1196.71641988	      1.54260279	     -0.71384555	      4.30716627	    439.60399633	   -287.23516870	      0.38470776	     -0.07788703	      0.57215241	    278.60397964
      0.65000000	      0.40432365	      0.11989625	      0.94893071	    274.85583049	  -1545.37793250	      2.56762358	      0.00955543	      0.03455256	     18.93293966	    -44.90474230	   -186.95584517	   -541.68494154	    424.88442754	  -1733.47961088	      0.15893505	     -0.12570410	     -1.62572327	   1948.06098775	      1.42431736	     -0.73490011	      4.63102003	    428.29615865	   -303.93871343	      0.41584959	     -0.08685878	      0.63805823	    310.69616961
      0.66000000	      0.42077488	      0.13382156	      1.57283892	    291.64851517	  -1367.34329570	      2.23423568	      0.05043486	      0.18237311	     99.93064709	    -30.99812505	   -120.31859357	   -311.50640092	    424.72423593	  -1744.64539821	      0.14960649	     -0.13028943	     -1.68502508	   2019.12076517	      1.33504988	     -0.74165213	      4.11165656	    464.56857522	   -268.74570309	      0.35371619	     -0.08483349	      0.62318064	    303.45167224
      0.67000000	      0.27113613	      0.40350219	      1.59758650	    265.90553513	  -1386.46620978	      2.28212739	      0.10455730	      0.37808055	    207.16778341	    -18.29699259	    -58.99477627	   -164.90367452	    425.21004276	  -1762.34827144	      0.13486418	     -0.11515833	     -1.48933552	   1784.63117221	      1.55807307	     -0.62281083	      4.40036837	    479.01094533	   -275.70848825	      0.37205278	     -0.12958069	      0.95189027	    463.51358716
      0.68000000	      0.19363869	      0.12275668	      1.63973391	    311.24867320	  -1354.28605612	      2.20051409	      0.06208034	      0.22448331	    123.00476837	     -9.17029702	    -30.85256934	    -69.09786968	    424.53864697	  -1778.88342528	      0.12102171	     -0.04762871	     -0.61597915	    738.11143841	      1.48625054	     -0.80391697	      4.22312552	    459.14769923	   -281.12406984	      0.37762143	     -0.06937108	      0.50959489	    248.14220896
      0.69000000	      0.29691852	      0.24170144	      2.16465445	    312.17401824	  -1293.83546538	      2.08972493	      0.06965022	      0.25185611	    138.00358531	     -2.00984582	    -13.54665526	    -20.41750739	    431.51218672	  -1802.56844000	      0.10170575	     -0.02943040	     -0.38062150	    456.08862357	      1.73492737	     -0.74639697	      4.60975483	    473.23713319	   -308.36297698	      0.43749922	     -0.08827743	      0.64847952	    315.77071262
      0.70000000	      0.60682915	      0.20776922	      2.21779203	    320.09382521	  -1235.69964325	      1.97963012	      0.07873991	      0.28472453	    156.01371065	      0.54269980	      1.92454255	      1.25313488	    102.09258703	  -1554.87502649	      0.28715762	     -0.05836674	     -0.75485338	    904.52074361	      1.58183206	     -0.65487313	      4.55216049	    456.22120354	   -271.90112628	      0.35786268	     -0.08202579	      0.60255548	    293.40845395
      0.71000000	      0.61961385	      0.49231712	      2.08033510	    287.79228476	  -1275.13725231	      2.06790618	      0.08153045	      0.29481518	    161.54284239	      0.91743275	      1.91758384	      1.86393444	    134.94205430	  -1488.22028404	      0.34490297	     -0.05939698	     -0.76817746	    920.48662822	      1.60308239	     -0.70177418	      4.81933386	    437.05369551	   -290.06467454	      0.38980558	     -0.08977873	      0.65950797	    321.14090907
      0.72000000	      0.39649956	      0.39073381	      2.60756023	    335.87951714	  -1270.39685418	      2.03498541	      0.06255593	      0.22620305	    123.94709150	      0.96206260	      1.95839953	      1.80900370	    124.34701725	  -1493.52588442	      0.33979160	     -0.06376760	     -0.82470244	    988.21901643	      1.63215756	     -0.54630989	      4.56586818	    461.31275433	   -292.35368904	      0.40128830	     -0.09269389	      0.68092253	    331.56851860
      0.73000000	      0.59203680	      0.39761664	      2.19078814	    317.87547058	  -1262.62732750	      2.02989266	      0.06257878	      0.22628566	    123.99235731	      1.07426970	      1.67530714	      1.00889308	   -148.07013870	  -1372.28083519	      0.42339624	     -0.09822024	     -1.27027625	   1522.13827208	      1.59683946	     -0.83527225	      4.53213859	    442.27855618	   -272.93511538	      0.35608829	     -0.07352869	      0.54013641	    263.01410339
      0.74000000	      0.28829491	      0.52422296	      2.30110882	    319.45391695	  -1309.92800142	      2.11541960	      0.08410873	      0.30413826	    166.65138969	      0.77791187	      1.66326539	      2.13977386	    191.75910171	  -1529.76511991	      0.31389867	     -0.04835842	     -0.62541647	    749.41993277	      1.44270163	     -0.71403125	      4.39034373	    441.10950496	   -306.11630866	      0.42390371	     -0.04160006	      0.30559103	    148.80454301
      0.75000000	      0.44480100	      0.36840138	      2.13790594	    305.56760869	  -1307.08681414	      2.11724285	      0.05931910	      0.21449862	    117.53369396	      0.96951641	      1.87975175	      1.48975271	    119.49264397	  -1513.61441380	      0.32271379	     -0.07048107	     -0.91152731	   1092.25895034	      1.38609615	     -0.97183178	      5.02403192	    490.51578937	   -274.01570439	      0.37179272	     -0.09302022	      0.68331974	    332.73581475
      0.76000000	      0.45527100	      0.55693388	      2.33795121	    338.40039443	  -1263.97067434	      2.02198537	      0.08519165	      0.30805412	    168.79707240	      0.78654685	      1.45077121	      1.30779766	      5.47788501	  -1386.67636105	      0.42129080	     -0.06790135	     -0.87816401	   1052.28059297	      1.57298493	     -1.00719458	      5.33286160	    458.50567557	   -270.43791642	      0.35549643	     -0.08753876	      0.64305335	    313.12849324
      0.77000000	      0.70614356	      0.38711585	      2.26543561	    316.12987932	  -1330.91874990	      2.15540529	      0.04023435	      0.14548793	     79.71955128	      0.88844675	      1.54721585	      1.31804857	     42.20685623	  -1394.22689721	      0.41735966	     -0.07105049	     -0.91889156	   1101.08332966	      1.60137963	     -0.87459820	      4.67161506	    445.45738003	   -274.31531619	      0.35981141	     -0.07610891	      0.55909050	    272.24361237
      0.78000000	      0.53694129	      0.41518333	      1.64132967	    234.16662165	  -1279.24722645	      2.10247167	      0.07810960	      0.28244531	    154.76482106	      0.80429087	      1.35381783	      1.84346432	     96.37560349	  -1421.66958808	      0.39795319	     -0.05899617	     -0.76299377	    914.27515936	      1.62681512	     -0.88107174	      4.90896968	    427.63675792	   -303.90574583	      0.41559755	     -0.09087235	      0.66754161	    325.05281074
